<svg width="16" height="16" viewBox="0 0 16 16" fill="none" xmlns="http://www.w3.org/2000/svg">
<path d="M8.70796 0.292786C8.52015 0.105315 8.26545 0 7.99988 0C7.7343 0 7.47961 0.105315 7.29179 0.292786L0.281022 7.29279C0.0985832 7.48139 -0.00236613 7.73399 -8.42095e-05 7.99619C0.00219771 8.25838 0.107528 8.5092 0.293222 8.6946C0.478915 8.88001 0.730113 8.98518 0.992713 8.98746C1.25531 8.98974 1.5083 8.88894 1.6972 8.70679L1.99065 8.41379V14.9998C1.99065 15.265 2.09617 15.5194 2.28399 15.7069C2.47182 15.8944 2.72656 15.9998 2.99219 15.9998H4.99526C5.26089 15.9998 5.51563 15.8944 5.70346 15.7069C5.89128 15.5194 5.9968 15.265 5.9968 14.9998V12.9998C5.9968 12.7346 6.10232 12.4802 6.29014 12.2927C6.47797 12.1051 6.73271 11.9998 6.99834 11.9998H9.00142C9.26704 11.9998 9.52178 12.1051 9.70961 12.2927C9.89743 12.4802 10.003 12.7346 10.003 12.9998V14.9998C10.003 15.265 10.1085 15.5194 10.2963 15.7069C10.4841 15.8944 10.7389 15.9998 11.0045 15.9998H13.0076C13.2732 15.9998 13.5279 15.8944 13.7158 15.7069C13.9036 15.5194 14.0091 15.265 14.0091 14.9998V8.41379L14.3026 8.70679C14.4914 8.88894 14.7444 8.98974 15.007 8.98746C15.2696 8.98518 15.5208 8.88001 15.7065 8.6946C15.8922 8.5092 15.9976 8.25838 15.9998 7.99619C16.0021 7.73399 15.9012 7.48139 15.7187 7.29279L8.70796 0.292786Z" fill="white"/>
</svg>
